<svg xmlns="http://www.w3.org/2000/svg" viewBox="0 0 39.76 45.04"><defs><style>.a{fill:#ed1c24;}.b,.c{fill:#fdb924;}.c{stroke:#ed1c24;stroke-miterlimit:3.86;stroke-width:0.22px;}</style></defs><title>Tampere.vaakuna</title><path class="a" d="M0,0H39.76V27.59C39.76,36,30.89,45,19.88,45,9.45,45,0,35.86,0,27.59V0Z"/><path class="b" d="M.45,30.72c1.66-2.2,2.8-.18,4.06-3.41.78-2,.32-4.1,4.89-5.28,5.16-1.33,1.34-5.91,7.8-7.49,5-1.21.94-6.58,8.19-7.72,4-.63,1.61-5.39,6.3-6.82l8,0V6.64c-6.36.51-3.69,6.49-8.65,7.2-6.43.91-2.29,6.46-8.91,7.72-4.94.94-1.81,5.83-6.93,7.17S11.59,32,10,34.4s-4.06,1.41-5.36,3.49A16.49,16.49,0,0,1,.45,30.72Z"/><path class="c" d="M30.37,30.13c0,.68-1.75,1.1-1.57,1.18.94.43,1.53.77,1.53.77a2.23,2.23,0,0,0,1.55-2.34,1.58,1.58,0,0,0-2.17-1.31c-.22.08-.59.35-.54.69s.67-.11.67.05-.18-.05-.39.3.3.56.69.24a.43.43,0,0,1,.23.42Z"/><path class="c" d="M27.14,39.61s0,.75,0,.75c-1.08.14-.55,1-1.34.91-.81-.21-.29-1.57.53-1.91.43.17.44.09.78.25Z"/><path class="b" d="M25.36,23.13A4.31,4.31,0,0,0,26,24.46c.26.36,1.12.85,1.13-.5a1.65,1.65,0,1,1,1.63,0c0,1.37.87.88,1.12.52a4.07,4.07,0,0,0,.63-1.33c4.15.14,4.41-.56,4.56-.26.22,1-2.37,1.37-2,1.5.8.35,1.88-.2,1.82.12-.2,1-2.33,1-2.45,1.2s1.49.23,1.55.45c.16.58-2.55.64-2.72.61-.2.23,1.06.22,1,.49-.24.53-2,0-2.08,0-.27.23.83.49.51.74a2.15,2.15,0,0,1-2-.55l-.06,13.76c0,.74-1.41,1-1.34,0l-.06-13.77a2.15,2.15,0,0,1-2,.56c-.32-.25.77-.51.51-.74-.07-.06-1.85.51-2.08,0-.07-.27,1.19-.26,1-.49-.17,0-2.88,0-2.73-.61.07-.22,1.62-.14,1.56-.45s-2.25-.23-2.45-1.2c-.06-.32,1,.23,1.82-.12.34-.13-2.25-.51-2-1.5.15-.3.41.4,4.55.26Z"/><path class="c" d="M28.79,31.37c2.33.45,3.33,3.36.71,4.19,0,0-.39-.17-.72-.32,0,0,0-.41,0-.41,1.48-.58,1.21-2-.93-2.35-3.72-.62-4-1.47-4-2.58A1.62,1.62,0,0,1,26,28.4c.22.08.72.4.62.74s-.73-.13-.79.06.5.07.63.24-.47.66-1,.26a.41.41,0,0,0-.15.5c.21.49.72.56,2.06.87a10,10,0,0,1,1.43.3Z"/><path class="c" d="M25.76,32s.75.26,1.33.39c0,0,0,.48,0,.48a1.13,1.13,0,0,0-.88.75c-.06.63.14.91,1.86,1.46,3.05.7,2.73,2.16,2.6,2.7a2.12,2.12,0,0,1-1.44,1.35c-.15,0-.19-.14-.48-.29a1.47,1.47,0,0,1,0-.36c0-.05.68-.5.68-1s0-.88-1.5-1.27c-4.38-.78-3.58-3.54-2.16-4.25Z"/><path class="c" d="M25.51,38.68a4,4,0,0,0,1.44.8c.83.39.89.39,1.4.62,1.08.4.88,1.28,1.4,1.17s.38-1.49-.65-2a15.18,15.18,0,0,0-1.61-.74C26,37.8,26,37,27.09,36.22A7.75,7.75,0,0,1,26,35.75a1.8,1.8,0,0,0-.45,2.93Z"/><polygon class="b" points="11.05 8.79 11.05 19.83 6.21 19.83 6.21 8.79 11.05 8.79 11.05 8.79"/><polygon class="b" points="2.79 2.91 12.63 2.91 15.23 5.17 15.23 8.2 11.05 8.2 6.21 8.2 2.79 8.2 2.79 2.91 2.79 2.91"/></svg>